<?xml version="1.0" ?><!DOCTYPE svg  PUBLIC '-//W3C//DTD SVG 1.1//EN'  'http://www.w3.org/Graphics/SVG/1.1/DTD/svg11.dtd'><svg enable-background="new 0 0 24 24" height="24px" version="1.1" viewBox="0 0 24 24" width="24px" xml:space="preserve" xmlns="http://www.w3.org/2000/svg" xmlns:xlink="http://www.w3.org/1999/xlink"><g id="Frame_-_24px"><rect fill="none" height="24" width="24" y="0.001"/></g><g id="Filled_Icons"><g><path d="M19.207,17.795l1.439-1.44c0.194-0.194,0.137-0.415-0.127-0.491l-6.039-1.726    c-0.264-0.076-0.418,0.079-0.344,0.344l1.727,6.038c0.074,0.265,0.296,0.322,0.49,0.128l1.439-1.44L21,22.416l1.414-1.414    L19.207,17.795z"/><path d="M2,3.001v3h2v-2h2v-2H3C2.447,2.001,2,2.45,2,3.001z"/><path d="M4,14.002H2v3c0,0.552,0.447,1,1,1h3v-2H4V14.002z"/><rect height="2" width="4" x="8" y="2.001"/><rect height="4" width="2" x="2" y="8.002"/><path d="M16,6.002h2v-3c0-0.552-0.447-1-1-1h-3v2h2V6.002z"/><rect height="4" width="2" x="16" y="8.002"/><rect height="2" width="4" x="8" y="16.001"/></g></g></svg>
